<svg version="1.0" xmlns="http://www.w3.org/2000/svg"
 width="250.000000pt" height="281.000000pt" viewBox="0 0 250.000000 281.000000"
 preserveAspectRatio="xMidYMid meet">

<g transform="translate(0.000000,281.000000) scale(0.100000,-0.100000)">
<path d="M85 2673 l74 -128 708 -6 c773 -6 748 -4 921 -68 251 -91 430 -294
483 -546 7 -33 12 -103 12 -155 -1 -230 -99 -456 -285 -655 l-72 -78 44 23
c120 61 240 162 319 269 60 81 132 229 156 321 23 89 31 281 16 376 -64 395
-386 709 -784 763 -50 7 -364 11 -872 11 l-794 0 74 -127z"/>
<path d="M405 2123 l74 -128 528 -5 c506 -5 530 -6 584 -27 120 -45 204 -104
268 -186 134 -175 173 -413 101 -621 -32 -94 -5 -63 59 67 86 173 106 250 106
412 0 110 -4 140 -23 197 -80 230 -280 371 -582 408 -49 6 -317 10 -637 10
l-552 0 74 -127z"/>
<path d="M628 1738 c32 -52 419 -718 722 -1243 l278 -480 152 -3 c83 -1 149 1
147 5 -3 5 -218 377 -480 828 -261 451 -488 843 -504 870 l-29 50 -153 3 -153
3 20 -33z"/>
<path d="M1180 1765 c0 -7 999 -1738 1009 -1748 4 -4 73 -6 153 -5 l145 3
-288 500 c-159 275 -287 506 -284 512 2 7 0 12 -6 10 -5 -1 -102 158 -215 353
-113 195 -210 360 -216 367 -8 9 -50 13 -154 13 -79 0 -144 -2 -144 -5z"/>
<path d="M303 417 l-232 -402 461 -3 c254 -1 463 -1 465 1 3 3 -448 791 -459
802 -2 2 -108 -177 -235 -398z"/>
</g>
</svg>
